<svg aria-hidden="true" style="position: absolute; width: 0; height: 0; overflow: hidden;" version="1.1" xmlns="http://www.w3.org/2000/svg" xmlns:xlink="http://www.w3.org/1999/xlink">
<defs>
<symbol id="icon-share-trading" viewBox="0 0 32 32">
<path fill="#fec7b0" style="fill: var(--color1, #fec7b0)" d="M9 19.906h-5c-0.276 0-0.5 0.224-0.5 0.5v11c0 0.276 0.224 0.5 0.5 0.5h5c0.276 0 0.5-0.224 0.5-0.5v-11c0-0.276-0.224-0.5-0.5-0.5z"></path>
<path fill="#feaa88" style="fill: var(--color2, #feaa88)" d="M5 31.406v-11c0-0.276 0.224-0.5 0.5-0.5h-1.5c-0.276 0-0.5 0.224-0.5 0.5v11c0 0.276 0.224 0.5 0.5 0.5h1.5c-0.276 0-0.5-0.224-0.5-0.5z"></path>
<path fill="#feaa88" style="fill: var(--color2, #feaa88)" d="M18.5 17.406h-5c-0.276 0-0.5 0.224-0.5 0.5v13.5c0 0.276 0.224 0.5 0.5 0.5h5c0.276 0 0.5-0.224 0.5-0.5v-13.5c0-0.276-0.224-0.5-0.5-0.5z"></path>
<path fill="#fd8e61" style="fill: var(--color3, #fd8e61)" d="M14.5 31.406v-13.5c0-0.276 0.224-0.5 0.5-0.5h-1.5c-0.276 0-0.5 0.224-0.5 0.5v13.5c0 0.276 0.224 0.5 0.5 0.5h1.5c-0.276 0-0.5-0.224-0.5-0.5z"></path>
<path fill="#fd8e61" style="fill: var(--color3, #fd8e61)" d="M28 11.906h-5c-0.276 0-0.5 0.224-0.5 0.5v19c0 0.276 0.224 0.5 0.5 0.5h5c0.276 0 0.5-0.224 0.5-0.5v-19c0-0.276-0.224-0.5-0.5-0.5z"></path>
<path fill="#fd7239" style="fill: var(--color4, #fd7239)" d="M24 31.406v-19c0-0.276 0.224-0.5 0.5-0.5h-1.5c-0.276 0-0.5 0.224-0.5 0.5v19c0 0.276 0.224 0.5 0.5 0.5h1.5c-0.276 0-0.5-0.224-0.5-0.5z"></path>
<path fill="#aab4bd" style="fill: var(--color5, #aab4bd)" d="M31.5 31.906h-31c-0.276 0-0.5-0.224-0.5-0.5s0.224-0.5 0.5-0.5h31c0.276 0 0.5 0.224 0.5 0.5s-0.224 0.5-0.5 0.5z"></path>
<path fill="#55697a" style="fill: var(--color6, #55697a)" d="M30.162 0.344c-0.215-0.19-0.501-0.278-0.786-0.243l-4 0.5c-0.548 0.069-0.937 0.568-0.868 1.116s0.569 0.936 1.116 0.868l1.504-0.188c-5.088 6.33-11.343 9.557-15.832 11.166-5.24 1.879-9.287 2.029-9.328 2.030-0.552 0.017-0.985 0.478-0.968 1.030 0.016 0.542 0.461 0.97 0.999 0.97 0.010 0 0.021-0 0.031-0 0.175-0.005 4.346-0.152 9.868-2.12 3.239-1.154 6.275-2.7 9.021-4.595 2.85-1.966 5.392-4.315 7.581-6.997v1.213c0 0.552 0.448 1 1 1s1-0.448 1-1v-4c0-0.287-0.123-0.56-0.338-0.75z"></path>
</symbol>

<symbol id="icon-IPO-form" viewBox="0 0 32 32">
<path fill="#f9dd9d" style="fill: var(--color1, #f9dd9d)" d="M28.505 30.25l1.099-2.161v-17.684c0-0.942-0.764-1.706-1.706-1.706v0c-0.942 0-1.706 0.764-1.706 1.706v17.684l1.099 2.161c0.116 0.229 0.351 0.372 0.607 0.372v0c0.256-0 0.491-0.145 0.607-0.373z"></path>
<path fill="#f9a287" style="fill: var(--color2, #f9a287)" d="M29.603 14.113v-3.624c0-0.837-0.564-1.611-1.387-1.761-1.082-0.196-2.023 0.631-2.023 1.677v3.708h3.411z"></path>
<path fill="#82d9ff" style="fill: var(--color3, #82d9ff)" d="M26.192 25.115h3.411v1.366h-3.411v-1.366z"></path>
<path fill="#63312d" style="fill: var(--color4, #63312d)" d="M27.898 30.873c-0.352 0-0.671-0.195-0.83-0.509l-1.098-2.16c-0.018-0.035-0.027-0.073-0.027-0.113v-17.684c0-1.078 0.878-1.956 1.956-1.956s1.955 0.877 1.955 1.956v17.684c0 0.040-0.009 0.078-0.027 0.113l-1.098 2.16c-0.16 0.314-0.477 0.509-0.829 0.509zM26.442 28.030l1.071 2.108c0.148 0.291 0.62 0.291 0.769 0l1.071-2.108v-17.625c0-0.803-0.653-1.456-1.455-1.456s-1.456 0.653-1.456 1.456v17.625z"></path>
<path fill="#63312d" style="fill: var(--color4, #63312d)" d="M26.192 13.864h3.41v0.5h-3.41v-0.5z"></path>
<path fill="#63312d" style="fill: var(--color4, #63312d)" d="M26.238 24.864h3.3v0.5h-3.3v-0.5z"></path>
<path fill="#63312d" style="fill: var(--color4, #63312d)" d="M26.238 26.23h3.3v0.5h-3.3v-0.5z"></path>
<path fill="#82d9ff" style="fill: var(--color3, #82d9ff)" d="M29.493 18.909v0c-0.442 0-0.8-0.358-0.8-0.8v-4.871c0-0.442 0.358-0.8 0.8-0.8v0c0.442 0 0.8 0.358 0.8 0.8v4.871c0 0.442-0.358 0.8-0.8 0.8z"></path>
<path fill="#63312d" style="fill: var(--color4, #63312d)" d="M29.493 19.159c-0.579 0-1.051-0.471-1.051-1.051v-4.871c0-0.579 0.471-1.051 1.051-1.051s1.051 0.471 1.051 1.051v4.871c0 0.58-0.471 1.051-1.051 1.051zM29.493 12.687c-0.303 0-0.551 0.247-0.551 0.551v4.871c0 0.303 0.247 0.551 0.551 0.551s0.551-0.247 0.551-0.551v-4.871c0-0.304-0.247-0.551-0.551-0.551z"></path>
<path fill="#52b8d9" style="fill: var(--color5, #52b8d9)" d="M23.323 30.268h-2.622v-27.384h2.622c0.552 0 1 0.447 1 1v25.384c0 0.552-0.448 1-1 1z"></path>
<path fill="#63312d" style="fill: var(--color4, #63312d)" d="M23.323 30.518h-2.622c-0.138 0-0.25-0.112-0.25-0.25v-27.383c0-0.138 0.112-0.25 0.25-0.25h2.622c0.689 0 1.25 0.561 1.25 1.25v25.384c0 0.689-0.561 1.25-1.25 1.25zM20.951 30.018h2.372c0.413 0 0.75-0.337 0.75-0.75v-25.383c0-0.413-0.337-0.75-0.75-0.75h-2.372v26.883z"></path>
<path fill="#82d9ff" style="fill: var(--color3, #82d9ff)" d="M21.701 30.268h-18.995c-0.553 0-1-0.448-1-1v-25.384c0-0.553 0.447-1 1-1h18.995c0.552 0 1 0.447 1 1v25.384c0 0.552-0.448 1-1 1z"></path>
<path fill="#caf4ff" style="fill: var(--color6, #caf4ff)" d="M3.206 3.885h19.495c0-0.553-0.448-1-1-1h-18.995c-0.553 0-1 0.447-1 1v25.384c0 0.552 0.447 1 1 1v-25.884c0-0.276 0.224-0.5 0.5-0.5z"></path>
<path fill="#63312d" style="fill: var(--color4, #63312d)" d="M21.701 30.518h-18.994c-0.689 0-1.25-0.561-1.25-1.25v-25.383c0-0.689 0.561-1.25 1.25-1.25h18.995c0.689 0 1.25 0.561 1.25 1.25v25.384c-0 0.689-0.561 1.25-1.25 1.25zM2.707 3.135c-0.413 0-0.75 0.337-0.75 0.75v25.384c0 0.413 0.337 0.75 0.75 0.75h18.995c0.413 0 0.75-0.337 0.75-0.75v-25.384c0-0.413-0.337-0.75-0.75-0.75h-18.995z"></path>
<path fill="#f8f3f3" style="fill: var(--color7, #f8f3f3)" d="M3.706 4.885h16.995v23.384h-16.995v-23.384z"></path>
<path fill="#63312d" style="fill: var(--color4, #63312d)" d="M20.701 28.518h-16.994c-0.138 0-0.25-0.112-0.25-0.25v-23.383c0-0.138 0.112-0.25 0.25-0.25h16.995c0.138 0 0.25 0.112 0.25 0.25v23.384c-0 0.137-0.112 0.25-0.25 0.25zM3.957 28.018h16.495v-22.883h-16.495v22.883z"></path>
<path fill="#f9dd9d" style="fill: var(--color1, #f9dd9d)" d="M7.327 1.377h10.354v4.696h-10.354v-4.696z"></path>
<path fill="#ffeecf" style="fill: var(--color8, #ffeecf)" d="M8.327 2.377h9.354v-1h-10.354v4.696h1z"></path>
<path fill="#63312d" style="fill: var(--color4, #63312d)" d="M17.681 6.323h-10.354c-0.138 0-0.25-0.112-0.25-0.25v-4.696c0-0.138 0.112-0.25 0.25-0.25h10.354c0.138 0 0.25 0.112 0.25 0.25v4.696c0 0.138-0.111 0.25-0.25 0.25zM7.577 5.823h9.854v-4.196h-9.854v4.196z"></path>
<path fill="#63312d" style="fill: var(--color4, #63312d)" d="M6.042 9.409h12.188v0.5h-12.188v-0.5z"></path>
<path fill="#63312d" style="fill: var(--color4, #63312d)" d="M6.042 11.722h12.188v0.5h-12.188v-0.5z"></path>
<path fill="#63312d" style="fill: var(--color4, #63312d)" d="M6.042 21.011h12.188v0.5h-12.188v-0.5z"></path>
<path fill="#63312d" style="fill: var(--color4, #63312d)" d="M13.833 14.556h4.396v0.5h-4.396v-0.5z"></path>
<path fill="#63312d" style="fill: var(--color4, #63312d)" d="M12.708 16.192h-6.417c-0.138 0-0.25-0.112-0.25-0.25v-2.095c0-0.138 0.112-0.25 0.25-0.25h6.417c0.138 0 0.25 0.112 0.25 0.25v2.095c0 0.138-0.112 0.25-0.25 0.25zM6.542 15.693h5.917v-1.595h-5.917v1.595z"></path>
<path fill="#63312d" style="fill: var(--color4, #63312d)" d="M13.833 18.095h4.396v0.5h-4.396v-0.5z"></path>
<path fill="#63312d" style="fill: var(--color4, #63312d)" d="M13.833 25.104h4.396v0.5h-4.396v-0.5z"></path>
<path fill="#63312d" style="fill: var(--color4, #63312d)" d="M12.708 19.731h-6.417c-0.138 0-0.25-0.112-0.25-0.25v-2.095c0-0.138 0.112-0.25 0.25-0.25h6.417c0.138 0 0.25 0.112 0.25 0.25v2.095c0 0.138-0.112 0.25-0.25 0.25zM6.542 19.231h5.917v-1.595h-5.917v1.595z"></path>
</symbol>

<symbol id="icon-BO-Account" viewBox="0 0 32 32">
<path fill="#4086f4" style="fill: var(--color1, #4086f4)" d="M28.469 3.787l-12.188-3.75c-0.094-0.037-0.188-0.037-0.281-0.037s-0.187 0-0.281 0.037l-12.188 3.75c-0.394 0.131-0.656 0.488-0.656 0.9v9.5c0 13.669 12.713 17.737 12.844 17.775 0.094 0.019 0.188 0.038 0.281 0.038s0.187-0.019 0.281-0.038c0.131-0.038 12.844-4.106 12.844-17.775v-9.5c0-0.413-0.262-0.769-0.656-0.9z"></path>
<path fill="#4175df" style="fill: var(--color2, #4175df)" d="M29.125 4.688v9.5c0 13.669-12.713 17.737-12.844 17.775-0.094 0.019-0.188 0.038-0.281 0.038v-32c0.094 0 0.187 0 0.281 0.037l12.188 3.75c0.394 0.131 0.656 0.488 0.656 0.9z"></path>
<path fill="#4175df" style="fill: var(--color2, #4175df)" d="M21.239 22.241c-0.335-0.152-0.551-0.486-0.551-0.854v-1.124c0-0.782-2.52-1.388-4.688-1.388s-4.688 0.606-4.688 1.388v1.124c0 0.368-0.216 0.702-0.551 0.854s-0.729 0.092-1.006-0.15c-1.989-1.752-3.13-4.291-3.13-6.966 0-5.169 4.206-9.375 9.375-9.375s9.375 4.206 9.375 9.375c0 2.675-1.141 5.214-3.13 6.966-0.275 0.24-0.667 0.303-1.006 0.15z"></path>
<path fill="#4254b6" style="fill: var(--color3, #4254b6)" d="M20.688 20.263v1.124c0 0.368 0.216 0.702 0.551 0.854 0.339 0.153 0.731 0.090 1.006-0.15 1.989-1.752 3.13-4.291 3.13-6.966 0-5.169-4.206-9.375-9.375-9.375v13.125c2.168 0 4.688 0.606 4.688 1.388z"></path>
<path fill="#fff5f5" style="fill: var(--color4, #fff5f5)" d="M16 17c-2.068 0-3.75-1.682-3.75-3.75s1.682-3.75 3.75-3.75 3.75 1.682 3.75 3.75-1.682 3.75-3.75 3.75z"></path>
<path fill="#fff5f5" style="fill: var(--color4, #fff5f5)" d="M16 24.5c-2.335 0-4.558-0.852-6.257-2.401-0.195-0.178-0.306-0.429-0.306-0.693v-1.143c0-3.171 5.89-3.263 6.563-3.263s6.563 0.092 6.563 3.263v1.143c0 0.264-0.111 0.515-0.306 0.693-1.699 1.548-3.921 2.401-6.257 2.401zM21.625 21.406h0.018z"></path>
<path fill="#e3e7ea" style="fill: var(--color5, #e3e7ea)" d="M22.257 22.099c0.195-0.178 0.306-0.429 0.306-0.693v-1.143c0-3.171-5.89-3.263-6.563-3.263v7.5c2.335 0 4.558-0.852 6.257-2.401z"></path>
<path fill="#e3e7ea" style="fill: var(--color5, #e3e7ea)" d="M19.75 13.25c0-2.068-1.682-3.75-3.75-3.75v7.5c2.068 0 3.75-1.682 3.75-3.75z"></path>
</symbol>

<symbol id="icon-mobile-app" viewBox="0 0 32 32">
<path fill="#404242" style="fill: var(--color1, #404242)" d="M24.692 0h-1.932v32h1.932c1.067 0 1.932-0.865 1.932-1.932v-28.137c0-1.067-0.865-1.932-1.932-1.932z"></path>
<path fill="#565959" style="fill: var(--color2, #565959)" d="M22.761 0h-15.453c-1.067 0-1.932 0.865-1.932 1.932v28.137c0 1.067 0.865 1.932 1.932 1.932h15.453c1.067 0 1.932-0.865 1.932-1.932v-3.863l-5.795-12.137 5.795-12.137c0-1.067-0.865-1.932-1.932-1.932z"></path>
<path fill="#8f8f8b" style="fill: var(--color3, #8f8f8b)" d="M17.932 28.137h-1.932v1.932h1.932c0.533 0 0.966-0.432 0.966-0.966s-0.432-0.966-0.966-0.966z"></path>
<path fill="#adaca7" style="fill: var(--color4, #adaca7)" d="M16.966 29.103c0-0.533-0.432-0.966-0.966-0.966h-1.932c-0.533 0-0.966 0.432-0.966 0.966s0.432 0.966 0.966 0.966h1.932c0.533 0 0.966-0.432 0.966-0.966z"></path>
<path fill="#4b88d5" style="fill: var(--color5, #4b88d5)" d="M16 14.068l6.761 12.137h1.932v-24.274h-1.932z"></path>
<path fill="#69a7ff" style="fill: var(--color6, #69a7ff)" d="M18.732 1.932l-1.366 1.366c-0.351 0.349-0.834 0.566-1.366 0.566s-1.015-0.216-1.365-0.566c-0.001 0-1.367-1.366-1.367-1.366h-5.96v24.274h15.453v-24.274z"></path>
<path fill="#404242" style="fill: var(--color1, #404242)" d="M16.386 1.932c0 0.213-0.173 0.386-0.386 0.386s-0.386-0.173-0.386-0.386c0-0.213 0.173-0.386 0.386-0.386s0.386 0.173 0.386 0.386z"></path>
</symbol>

<symbol id="icon-invest" viewBox="0 0 32 32">
<path fill="#4fc1e9" style="fill: var(--color1, #4fc1e9)" d="M18 19.245v1.755h-17v-1.755c0-1.655 1.020-3.135 2.565-3.73l3.935-1.515 0.025 0.075c0.285 0.85 1.080 1.425 1.975 1.425 0.45 0 0.87-0.145 1.215-0.395s0.615-0.605 0.76-1.030l0.025-0.075 3.935 1.515c1.545 0.595 2.565 2.075 2.565 3.73z"></path>
<path fill="#656d78" style="fill: var(--color2, #656d78)" d="M15 4v0.42c0 0.88-0.12 1.76-0.355 2.61-0.275-0.325-0.685-0.53-1.145-0.53h-0.515c-0.045-0.375-0.215-0.73-0.485-1-0.32-0.32-0.755-0.5-1.205-0.5h-3.59c-0.45 0-0.885 0.18-1.205 0.5-0.27 0.27-0.44 0.625-0.485 1h-0.515c-0.405 0-0.77 0.16-1.040 0.42l-0.050-0.1c-0.27-0.54-0.41-1.135-0.41-1.74 0-0.65 0.16-1.28 0.46-1.835s0.73-1.040 1.27-1.4c0.83-0.55 1.8-0.845 2.795-0.845h1.53c1.285 0 2.56 0.245 3.75 0.72l0.695 0.28-1 1.5z"></path>
<path fill="#f0d0b4" style="fill: var(--color3, #f0d0b4)" d="M13.5 6.5c0.46 0 0.87 0.205 1.145 0.53 0.22 0.26 0.355 0.6 0.355 0.97 0 0.415-0.17 0.79-0.44 1.060s-0.645 0.44-1.060 0.44h-0.54c0.030-0.165 0.040-0.33 0.040-0.5v-2.295c0-0.070-0.005-0.135-0.015-0.205z"></path>
<path fill="#f0d0b4" style="fill: var(--color3, #f0d0b4)" d="M6 9c0 0.17 0.010 0.335 0.040 0.5h-0.54c-0.415 0-0.79-0.17-1.060-0.44s-0.44-0.645-0.44-1.060c0-0.425 0.175-0.81 0.46-1.080 0.27-0.26 0.635-0.42 1.040-0.42h0.515c-0.010 0.070-0.015 0.135-0.015 0.205z"></path>
<path fill="#f0d0b4" style="fill: var(--color3, #f0d0b4)" d="M12.985 6.5c0.010 0.070 0.015 0.135 0.015 0.205v2.295c0 0.17-0.010 0.335-0.040 0.5-0.16 1.17-0.905 2.15-1.925 2.645-0.46 0.23-0.98 0.355-1.535 0.355s-1.075-0.125-1.535-0.355c-0.35-0.17-0.665-0.395-0.94-0.67-0.525-0.525-0.88-1.205-0.985-1.975-0.030-0.165-0.040-0.33-0.040-0.5v-2.295c0-0.070 0.005-0.135 0.015-0.205 0.045-0.375 0.215-0.73 0.485-1 0.32-0.32 0.755-0.5 1.205-0.5h3.59c0.45 0 0.885 0.18 1.205 0.5 0.27 0.27 0.44 0.625 0.485 1z"></path>
<path fill="#f0d0b4" style="fill: var(--color3, #f0d0b4)" d="M11.035 12.145l0.465 1.855-0.025 0.075c-0.145 0.425-0.415 0.78-0.76 1.030s-0.765 0.395-1.215 0.395c-0.895 0-1.69-0.575-1.975-1.425l-0.025-0.075 0.465-1.855c0.46 0.23 0.98 0.355 1.535 0.355s1.075-0.125 1.535-0.355z"></path>
<path fill="#ff826e" style="fill: var(--color4, #ff826e)" d="M25 24l-1.5 1.5-2.5-2.5-3.5 3.5-1.5-1.165-3-2.335-2.13 1.865c0.085 0.365 0.13 0.745 0.13 1.135 0 2.76-2.24 5-5 5h22v-10z"></path>
<path fill="#fcd770" style="fill: var(--color5, #fcd770)" d="M10.87 24.865c0.085 0.365 0.13 0.745 0.13 1.135 0 2.76-2.24 5-5 5s-5-2.24-5-5 2.24-5 5-5c2.37 0 4.355 1.65 4.87 3.865z"></path>
<path fill="#fcd770" style="fill: var(--color5, #fcd770)" d="M31 11c0 2.761-2.239 5-5 5s-5-2.239-5-5c0-2.761 2.239-5 5-5s5 2.239 5 5z"></path>
<path fill="#000" style="fill: var(--color6, #000)" d="M6.5 22.5h-1v1c-0.827 0-1.5 0.673-1.5 1.5s0.673 1.5 1.5 1.5h1c0.276 0 0.5 0.224 0.5 0.5s-0.224 0.5-0.5 0.5h-1.5v-0.5h-1v1.5h1.5v1h1v-1c0.827 0 1.5-0.673 1.5-1.5s-0.673-1.5-1.5-1.5h-1c-0.276 0-0.5-0.224-0.5-0.5s0.224-0.5 0.5-0.5h1.5v0.5h1v-1.5h-1.5z"></path>
<path fill="#000" style="fill: var(--color6, #000)" d="M25.5 14.5h1v-1c0.827 0 1.5-0.673 1.5-1.5s-0.673-1.5-1.5-1.5h-1c-0.276 0-0.5-0.225-0.5-0.5s0.224-0.5 0.5-0.5h1.5v0.5h1v-1.5h-1.5v-1h-1v1c-0.827 0-1.5 0.673-1.5 1.5s0.673 1.5 1.5 1.5h1c0.276 0 0.5 0.225 0.5 0.5s-0.224 0.5-0.5 0.5h-1.5v-0.5h-1v1.5h1.5z"></path>
<path fill="#000" style="fill: var(--color6, #000)" d="M26 16.5c3.032 0 5.5-2.467 5.5-5.5s-2.468-5.5-5.5-5.5-5.5 2.467-5.5 5.5 2.468 5.5 5.5 5.5zM26 6.5c2.482 0 4.5 2.019 4.5 4.5s-2.018 4.5-4.5 4.5-4.5-2.019-4.5-4.5 2.018-4.5 4.5-4.5z"></path>
<path fill="#000" style="fill: var(--color6, #000)" d="M26 18.5h3.793l-6.293 6.293-2.5-2.5-3.541 3.541-4.477-3.482-1.869 1.635c-0.399-1.009-1.085-1.872-1.961-2.487h9.348v-2.253c0-1.849-1.159-3.537-2.884-4.2l-3.694-1.421-0.309-1.236c0.857-0.537 1.496-1.386 1.755-2.39h0.132c1.103 0 2-0.897 2-2 0-0.395-0.119-0.761-0.318-1.072 0.207-0.821 0.318-1.662 0.318-2.509v-0.78l-1.22-0.407 0.979-1.468-1.268-0.506c-1.256-0.503-2.58-0.758-3.934-0.758h-1.532c-1.095 0-2.156 0.322-3.069 0.929-1.224 0.816-1.954 2.182-1.954 3.653 0 0.604 0.134 1.207 0.376 1.76-0.235 0.327-0.376 0.726-0.376 1.159 0 1.103 0.897 2 2 2h0.131c0.26 1.004 0.898 1.854 1.756 2.39l-0.309 1.236-3.694 1.421c-1.725 0.663-2.884 2.352-2.884 4.2v2.253h2.348c-1.417 0.996-2.348 2.64-2.348 4.5 0 3.032 2.467 5.5 5.5 5.5h25.5v-1h-3v-9.293l2-2v3.793h1v-5.5h-5.5zM24.5 25.207v5.293h-2v-5.293l1 1zM21.5 24.207v6.293h-2v-5.293l1.5-1.5zM17.541 27.166l0.959-0.959v4.293h-2v-4.145zM13.5 24.023l2 1.555v4.922h-2zM13.5 9v-2c0.552 0 1 0.449 1 1s-0.448 1-1 1zM5.5 9c-0.551 0-1-0.448-1-1s0.449-1 1-1zM5.625 6h-0.125c-0.29 0-0.565 0.066-0.814 0.178-0.12-0.353-0.186-0.724-0.186-1.095 0-1.136 0.564-2.191 1.51-2.821 0.747-0.498 1.617-0.761 2.515-0.761h1.532c1.226 0 2.425 0.231 3.563 0.687l0.123 0.049-1.021 1.532 1.78 0.593v0.059c0 0.593-0.060 1.184-0.173 1.765-0.253-0.115-0.531-0.184-0.827-0.184h-0.125c-0.107-0.317-0.278-0.611-0.521-0.854-0.417-0.417-0.971-0.646-1.56-0.646h-3.586c-0.59 0-1.143 0.229-1.561 0.646-0.244 0.244-0.414 0.537-0.521 0.854zM6.5 9v-2.293c0-0.322 0.125-0.625 0.354-0.854s0.532-0.354 0.854-0.354h3.586c0.322 0 0.626 0.125 0.854 0.354 0.228 0.228 0.354 0.53 0.354 0.853v2.293c0 1.654-1.345 3-2.999 3s-3.001-1.346-3.001-3zM9.501 13c0.414 0 0.813-0.063 1.19-0.181l0.288 1.152c-0.231 0.617-0.816 1.028-1.478 1.028s-1.246-0.412-1.478-1.030l0.287-1.152c0.377 0.117 0.776 0.181 1.191 0.181zM1.5 20.5v-1.253c0-1.438 0.901-2.75 2.244-3.267l3.485-1.341c0.444 0.828 1.309 1.36 2.271 1.36s1.829-0.533 2.272-1.36l3.485 1.341c1.342 0.516 2.243 1.829 2.243 3.267v1.253zM1.5 26c0-2.481 2.018-4.5 4.5-4.5s4.5 2.019 4.5 4.5-2.018 4.5-4.5 4.5-4.5-2.019-4.5-4.5zM11.5 26c0-0.323-0.034-0.639-0.088-0.947l1.088-0.952v6.398h-3.348c1.417-0.996 2.348-2.64 2.348-4.5zM27.5 30.5h-2v-6.293l2-2z"></path>
</symbol>
<symbol id="icon-location" viewBox="0 0 32 32">
<path fill="#fd003a" style="fill: var(--color1, #fd003a)" d="M16 0c-6.206 0-11.25 5.044-11.25 11.25 0 2.1 0.581 4.144 1.688 5.906l8.8 14.401c0.15 0.244 0.375 0.394 0.638 0.431 0.356 0.056 0.75-0.094 0.956-0.45l8.825-14.532c1.050-1.725 1.594-3.731 1.594-5.756 0-6.206-5.044-11.25-11.25-11.25zM16 16.875c-3.15 0-5.625-2.55-5.625-5.625 0-3.094 2.531-5.625 5.625-5.625s5.625 2.531 5.625 5.625c0 3.056-2.438 5.625-5.625 5.625z"></path>
<path fill="#e50027" style="fill: var(--color2, #e50027)" d="M16 0v5.625c3.094 0 5.625 2.531 5.625 5.625 0 3.056-2.438 5.625-5.625 5.625v15.124c0.32 0.007 0.649-0.146 0.831-0.461l8.825-14.532c1.050-1.725 1.594-3.731 1.594-5.756 0-6.206-5.044-11.25-11.25-11.25z"></path>
</symbol>
<symbol id="icon-location" viewBox="0 0 32 32">
<path fill="#c9dff7" style="fill: var(--color6, #c9dff7)" d="M16 32c-4.123 0-8.013-0.55-10.952-1.549-4.172-1.417-5.048-3.233-5.048-4.506 0-1.661 1.484-2.825 2.729-3.509 0.454-0.249 1.024-0.084 1.273 0.37s0.084 1.024-0.37 1.273c-1.117 0.613-1.757 1.294-1.757 1.866 0 0.7 0.992 1.785 3.776 2.731 2.75 0.934 6.426 1.449 10.349 1.449s7.599-0.515 10.349-1.449c2.784-0.946 3.776-2.031 3.776-2.731 0-0.572-0.64-1.253-1.757-1.866-0.454-0.249-0.62-0.819-0.37-1.273s0.819-0.62 1.273-0.37c1.245 0.684 2.729 1.848 2.729 3.509 0 1.273-0.876 3.089-5.048 4.506-2.939 0.999-6.829 1.549-10.952 1.549z"></path>
<path fill="#aecef2" style="fill: var(--color7, #aecef2)" d="M29.271 22.436c-0.454-0.249-1.024-0.084-1.273 0.37s-0.084 1.024 0.37 1.273c1.117 0.613 1.757 1.294 1.757 1.866 0 0.7-0.992 1.785-3.776 2.731-2.75 0.934-6.426 1.449-10.349 1.449-0 0-0 0-0 0v1.875c0 0 0 0 0 0 4.123 0 8.013-0.55 10.952-1.549 4.172-1.417 5.048-3.233 5.048-4.506 0-1.661-1.484-2.825-2.729-3.509z"></path>
<path fill="#c9dff7" style="fill: var(--color6, #c9dff7)" d="M16 28.154c-2.661 0-5.175-0.296-7.078-0.834-2.328-0.658-3.509-1.61-3.509-2.83s1.181-2.172 3.509-2.83c1.903-0.538 4.417-0.834 7.078-0.834s5.175 0.296 7.078 0.834c2.328 0.658 3.509 1.61 3.509 2.83s-1.181 2.172-3.509 2.83c-1.903 0.538-4.417 0.834-7.078 0.834zM7.304 24.491c0.129 0.189 0.755 0.68 2.468 1.117 1.701 0.433 3.913 0.672 6.228 0.672s4.527-0.239 6.228-0.672c1.713-0.436 2.339-0.928 2.468-1.117-0.129-0.189-0.755-0.68-2.468-1.117-1.701-0.433-3.913-0.672-6.228-0.672s-4.527 0.239-6.228 0.672c-1.713 0.436-2.339 0.928-2.468 1.117zM24.717 24.53v0z"></path>
<path fill="#aecef2" style="fill: var(--color7, #aecef2)" d="M23.078 21.661c-1.903-0.538-4.417-0.834-7.078-0.834-0 0-0 0-0 0v1.875c0 0 0 0 0 0 2.315 0 4.527 0.239 6.228 0.672 1.713 0.436 2.34 0.928 2.468 1.117-0.129 0.189-0.755 0.68-2.468 1.117-1.701 0.433-3.913 0.672-6.228 0.672-0 0-0 0-0 0v1.875c0 0 0 0 0 0 2.661 0 5.175-0.296 7.078-0.834 2.328-0.658 3.509-1.61 3.509-2.83s-1.181-2.172-3.509-2.83z"></path>
<path fill="#fe5857" style="fill: var(--color8, #fe5857)" d="M16 0c-4.806 0-8.715 3.909-8.715 8.715 0 2.993 3.636 9.571 6.687 14.562 0.435 0.712 1.194 1.138 2.028 1.138s1.593-0.425 2.028-1.138c3.051-4.991 6.687-11.569 6.687-14.562 0-4.805-3.91-8.715-8.715-8.715zM16 11.619c-1.931 0-3.503-1.571-3.503-3.503s1.571-3.503 3.503-3.503 3.503 1.571 3.503 3.503c0 1.932-1.571 3.503-3.503 3.503z"></path>
<path fill="#db0253" style="fill: var(--color9, #db0253)" d="M16 0c-0 0-0 0-0 0v4.614c0 0 0 0 0 0 1.931 0 3.503 1.571 3.503 3.503s-1.571 3.503-3.503 3.503c-0 0-0 0-0 0v12.795c0 0 0 0 0 0 0.835 0 1.593-0.425 2.028-1.138 3.051-4.991 6.687-11.569 6.687-14.562 0-4.805-3.91-8.715-8.715-8.715z"></path>
</symbol>
<symbol id="icon-marker" viewBox="0 0 32 32">
<path fill="#f45858" style="fill: var(--color6, #f45858)" d="M16 1.577c-4.241 0-7.678 3.438-7.678 7.678v0c-0.044 7.326 7.678 16.411 7.678 16.411s7.723-9.085 7.678-16.411c0-4.241-3.438-7.678-7.678-7.678v0zM16 12.512c-1.799 0-3.257-1.458-3.257-3.257s1.458-3.257 3.257-3.257c1.799 0 3.257 1.458 3.257 3.257v0c0 1.799-1.458 3.257-3.257 3.257v0z"></path>
<path fill="#3ea2e5" style="fill: var(--color7, #3ea2e5)" d="M19.319 21.072v0c-1.11 1.747-2.203 3.245-3.381 4.671l0.062-0.077c-1.116-1.348-2.208-2.847-3.209-4.41l-0.11-0.183c-5.412 0.546-9.394 2.396-9.394 4.593 0 2.628 5.692 4.758 12.713 4.758s12.713-2.13 12.713-4.758c-0-2.198-3.983-4.047-9.394-4.593z"></path>
<path fill="#000" style="fill: var(--color8, #000)" d="M20.057 20.716c0.058-0.094 0.116-0.186 0.173-0.282 2.597-4.3 3.904-8.062 3.886-11.179 0-0.002 0-0.004 0-0.007 0-0.832-0.125-1.635-0.358-2.391l0.015 0.058c-0.056-0.182-0.222-0.312-0.419-0.312-0.242 0-0.438 0.196-0.438 0.438 0 0.045 0.007 0.088 0.019 0.129l-0.001-0.003c0.194 0.623 0.306 1.34 0.306 2.082 0 0.003 0 0.006 0 0.009v-0.001c0.038 6.215-5.773 13.879-7.241 15.717-1.469-1.838-7.279-9.503-7.241-15.72 0.001-3.999 3.243-7.241 7.242-7.241 1.558 0 3.001 0.492 4.182 1.329l-0.023-0.015c0.070 0.050 0.157 0.080 0.252 0.080 0.242 0 0.438-0.196 0.438-0.438 0-0.147-0.073-0.278-0.185-0.357l-0.001-0.001c-1.299-0.921-2.916-1.473-4.663-1.473-4.481 0-8.115 3.632-8.117 8.113v0c-0.019 3.12 1.288 6.882 3.886 11.181 0.058 0.096 0.116 0.188 0.173 0.282-2.754 0.342-5.14 1.025-6.771 1.95-0.134 0.077-0.222 0.218-0.222 0.381 0 0.242 0.196 0.438 0.438 0.438 0.079 0 0.154-0.021 0.218-0.058l-0.002 0.001c1.613-0.913 4.040-1.581 6.856-1.89 1.081 1.679 2.137 3.118 3.271 4.491l-0.063-0.078c0.081 0.095 0.2 0.154 0.333 0.154s0.253-0.060 0.333-0.154l0-0.001c1.071-1.294 2.127-2.734 3.099-4.233l0.11-0.181c5.075 0.558 8.733 2.279 8.733 4.13 0 2.086-4.933 4.32-12.275 4.32s-12.275-2.234-12.275-4.32c0.018-0.434 0.19-0.825 0.461-1.123l-0.001 0.001c0.055-0.072 0.088-0.164 0.088-0.263 0-0.242-0.196-0.438-0.438-0.438-0.129 0-0.245 0.056-0.325 0.145l-0 0c-0.396 0.446-0.643 1.031-0.659 1.674l-0 0.003c0 2.913 5.775 5.195 13.15 5.195s13.15-2.282 13.15-5.195c-0.001-2.32-3.626-4.274-9.094-4.95z"></path>
<path fill="#000" style="fill: var(--color8, #000)" d="M12.312 28.32c0.016 0.002 0.035 0.003 0.054 0.003 0.001 0 0.001 0 0.002 0h-0c0.241-0.001 0.435-0.197 0.435-0.438 0-0.221-0.165-0.405-0.378-0.433l-0.002-0c-1.941-0.248-3.5-0.686-4.387-1.231-0.067-0.043-0.148-0.069-0.236-0.069-0.242 0-0.438 0.196-0.438 0.438 0 0.16 0.085 0.299 0.213 0.376l0.002 0.001c0.991 0.609 2.672 1.090 4.734 1.354z"></path>
<path fill="#000" style="fill: var(--color8, #000)" d="M16 28.544q0.382 0 0.755-0.009c0.237-0.006 0.427-0.199 0.427-0.437 0-0.004-0-0.007-0-0.011v0.001c-0.003-0.237-0.195-0.428-0.432-0.428-0.005 0-0.011 0-0.016 0l0.001-0c-0.61 0.014-1.245 0.011-1.864-0.012-0.005-0-0.010-0-0.016-0-0.242 0-0.438 0.196-0.438 0.438 0 0.236 0.187 0.429 0.421 0.437l0.001 0c0.384 0.014 0.775 0.021 1.162 0.021z"></path>
<path fill="#000" style="fill: var(--color8, #000)" d="M22.184 5.487c0.078 0.128 0.217 0.213 0.375 0.213 0.242 0 0.438-0.196 0.438-0.438 0-0.086-0.025-0.165-0.067-0.233l0.001 0.002c-0.248-0.402-0.503-0.749-0.784-1.075l0.009 0.010c-0.081-0.090-0.197-0.147-0.327-0.147-0.242 0-0.438 0.196-0.438 0.438 0 0.107 0.038 0.204 0.102 0.28l-0.001-0.001c0.243 0.281 0.471 0.591 0.674 0.919l0.018 0.031z"></path>
<path fill="#000" style="fill: var(--color8, #000)" d="M12.306 9.255c0 2.040 1.654 3.694 3.694 3.694s3.695-1.654 3.695-3.694c0-2.040-1.654-3.694-3.695-3.694v0c-2.039 0.003-3.691 1.655-3.694 3.694v0zM18.819 9.255c0 1.557-1.262 2.819-2.819 2.819s-2.819-1.262-2.819-2.819c0-1.557 1.262-2.819 2.819-2.819 0 0 0 0 0 0v0c1.556 0.002 2.818 1.263 2.819 2.819v0z"></path>
</symbol>
<symbol id="icon-mail" viewBox="0 0 32 32">
<path fill="#00efd1" style="fill: var(--color1, #00efd1)" d="M26.641 15.557l5.359-4.087v18.236h-0.154l-12.607-8.482z"></path>
<path fill="#00acea" style="fill: var(--color2, #00acea)" d="M32 11.393v0.077l-5.359 4.087v-7.749h0.154z"></path>
<path fill="#00ceb4" style="fill: var(--color3, #00ceb4)" d="M31.846 29.706h-31.692l12.492-8.366 0.077-0.116 3.277 2.506 3.239-2.506z"></path>
<path fill="#d4e1f4" style="fill: var(--color4, #d4e1f4)" d="M5.359 7.692v-5.398h21.282v13.263l-7.402 5.667-3.239 2.506-3.277-2.506-7.364-5.667z"></path>
<path fill="#00efd1" style="fill: var(--color1, #00efd1)" d="M5.359 15.557l7.364 5.667-0.077 0.116-12.492 8.366h-0.154v-18.236z"></path>
<path fill="#00acea" style="fill: var(--color2, #00acea)" d="M5.359 7.692v7.865l-5.359-4.087v-0.077z"></path>
<path fill="#083863" style="fill: var(--color5, #083863)" d="M13.301 7.923h-3.47c-0.426 0-0.771-0.345-0.771-0.771s0.345-0.771 0.771-0.771h3.47c0.426 0 0.771 0.345 0.771 0.771s-0.345 0.771-0.771 0.771z"></path>
<path fill="#083863" style="fill: var(--color5, #083863)" d="M22.169 11.393h-12.337c-0.426 0-0.771-0.345-0.771-0.771s0.345-0.771 0.771-0.771h12.337c0.426 0 0.771 0.345 0.771 0.771s-0.345 0.771-0.771 0.771z"></path>
<path fill="#083863" style="fill: var(--color5, #083863)" d="M22.169 14.863h-12.337c-0.426 0-0.771-0.345-0.771-0.771s0.345-0.771 0.771-0.771h12.337c0.426 0 0.771 0.345 0.771 0.771s-0.345 0.771-0.771 0.771z"></path>
</symbol>
<symbol id="icon-telephone" viewBox="0 0 32 32">
<path fill="#28abf9" style="fill: var(--color6, #28abf9)" d="M19.066 16h-1.875c0-0.329-0.134-0.626-0.35-0.842s-0.513-0.35-0.842-0.35v-1.875c0.846 0 1.612 0.344 2.167 0.899s0.899 1.321 0.899 2.167z"></path>
<path fill="#318def" style="fill: var(--color7, #318def)" d="M17.192 16c0-0.329-0.134-0.626-0.35-0.842l1.325-1.325c0.555 0.555 0.899 1.321 0.899 2.167z"></path>
<path fill="#28abf9" style="fill: var(--color6, #28abf9)" d="M23.393 16h-1.875c0-1.521-0.619-2.9-1.618-3.9s-2.378-1.618-3.9-1.618v-1.875c2.038 0 3.886 0.829 5.225 2.168s2.168 3.187 2.168 5.225z"></path>
<path fill="#318def" style="fill: var(--color7, #318def)" d="M21.518 16c0-1.521-0.619-2.9-1.618-3.9l1.325-1.325c1.339 1.339 2.168 3.187 2.168 5.225z"></path>
<path fill="#28abf9" style="fill: var(--color6, #28abf9)" d="M27.696 16h-1.875c0-2.708-1.102-5.163-2.88-6.941s-4.233-2.88-6.942-2.88v-1.875c3.225 0 6.149 1.312 8.267 3.429s3.429 5.042 3.429 8.267z"></path>
<path fill="#318def" style="fill: var(--color7, #318def)" d="M25.822 16c0-2.708-1.102-5.163-2.88-6.941l1.325-1.325c2.118 2.118 3.429 5.042 3.429 8.267z"></path>
<path fill="#28abf9" style="fill: var(--color6, #28abf9)" d="M32 16h-1.875c-0-3.894-1.584-7.425-4.142-9.983s-6.089-4.142-9.983-4.142v-1.875c4.274 0 8.292 1.664 11.314 4.686s4.686 7.040 4.686 11.314z"></path>
<path fill="#318def" style="fill: var(--color7, #318def)" d="M30.125 16c-0-3.894-1.584-7.425-4.142-9.983l1.331-1.331c3.022 3.022 4.686 7.040 4.686 11.314z"></path>
<path fill="#fe4945" style="fill: var(--color8, #fe4945)" d="M25.421 29.37l-1.624 1.624c-2.697 2.697-9.986-0.218-16.28-6.512s-9.209-13.583-6.512-16.28l1.624-1.624 4.443 2.14 2.069 4.372c-0.681 0.686-0.754 1.766-0.177 2.543 0.989 1.331 2.141 2.669 3.437 3.965s2.634 2.447 3.965 3.437c0.777 0.577 1.857 0.504 2.543-0.177l4.372 2.069z"></path>
<path fill="#fa185e" style="fill: var(--color9, #fa185e)" d="M25.421 29.37l-1.624 1.624c-2.697 2.697-9.986-0.218-16.28-6.512l4.884-4.884c1.296 1.296 2.634 2.447 3.965 3.437 0.777 0.577 1.857 0.504 2.543-0.177l4.372 2.069z"></path>
<path fill="#bbe4f2" style="fill: var(--color10, #bbe4f2)" d="M22.169 19.598l-3.254 3.254c-0.002 0.002-0.004 0.004-0.006 0.005l6.512 6.512 3.26-3.26z"></path>
<path fill="#e6f3ff" style="fill: var(--color11, #e6f3ff)" d="M9.147 13.085l3.254-3.254-6.512-6.512-3.26 3.26 6.512 6.512c0.002-0.002 0.004-0.004 0.005-0.006z"></path>
</symbol>

<symbol id="icon-strategy" viewBox="0 0 32 32">
<path fill="#ffc431" style="fill: var(--color45, #ffc431)" d="M1 23.833l11-7.333 5.5 2 5.5-4.5 6 14h-28z"></path>
<path fill="#ffa100" style="fill: var(--color46, #ffa100)" d="M1 25.167l11-3.667 5.5 3 5-3 6.5 6.5h-28z"></path>
<path fill="#548aff" style="fill: var(--color47, #548aff)" d="M13 8c0 0 0 0.001 0 0.001 0 3.038-2.463 5.501-5.501 5.501s-5.501-2.463-5.501-5.501c0-3.038 2.463-5.501 5.501-5.501 1.519 0 2.894 0.616 3.89 1.611v0c0.995 0.995 1.611 2.37 1.611 3.889v0z"></path>
<path fill="#ffc431" style="fill: var(--color45, #ffc431)" d="M7.5 2.5v5.5h-5.5c0-3.038 2.462-5.5 5.5-5.5v0z"></path>
<path fill="#ef5e3b" style="fill: var(--color48, #ef5e3b)" d="M11.389 4.111l-3.889 3.889v-5.5c0.002 0 0.005 0 0.007 0 1.516 0 2.889 0.616 3.881 1.611l0 0z"></path>
<path fill="#000" style="fill: var(--color19, #000)" d="M29.5 5.5h-1v20.064l-5.040-11.761c-0.078-0.18-0.255-0.303-0.46-0.303-0.121 0-0.231 0.043-0.317 0.114l0.001-0.001-5.28 4.32-5.233-1.903c-0.051-0.019-0.11-0.030-0.171-0.030-0.103 0-0.199 0.031-0.279 0.085l0.002-0.001-6 4 0.555 0.832 5.79-3.86 5.262 1.914c0.051 0.019 0.11 0.030 0.171 0.030 0.121 0 0.231-0.043 0.318-0.114l-0.001 0.001 4.986-4.079 4.715 11.003-4.664-4.664c-0.090-0.090-0.215-0.146-0.354-0.146-0.095 0-0.184 0.026-0.259 0.073l0.002-0.001-4.755 2.853-5.249-2.863c-0.069-0.038-0.152-0.061-0.239-0.061-0.057 0-0.111 0.009-0.162 0.027l0.004-0.001-9 3 0.316 0.949 8.794-2.931 5.309 2.896c0.069 0.038 0.152 0.061 0.239 0.061 0.095 0 0.184-0.026 0.259-0.073l-0.002 0.001 4.665-2.799 5.37 5.37h-26.793v1h2v1.5h1v-1.5h2v1.5h1v-1.5h2v1.5h1v-1.5h2v1.5h1v-1.5h2v1.5h1v-1.5h2v1.5h1v-1.5h2v1.5h1v-1.5h2v1.5h1v-1.5h2v1.5h1v-1.5h1c0.276 0 0.5-0.224 0.5-0.5v0-1h1.5v-1h-1.5v-2h1.5v-1h-1.5v-2h1.5v-1h-1.5v-2h1.5v-1h-1.5v-2h1.5v-1h-1.5v-2h1.5v-1h-1.5v-2h1.5v-1h-1.5z"></path>
<path fill="#000" style="fill: var(--color19, #000)" d="M15 5h1.5v1h-1.5z"></path>
<path fill="#000" style="fill: var(--color19, #000)" d="M17.5 5h7v1h-7z"></path>
<path fill="#000" style="fill: var(--color19, #000)" d="M15 7.5h4.5v1h-4.5z"></path>
<path fill="#000" style="fill: var(--color19, #000)" d="M20.5 7.5h1.5v1h-1.5z"></path>
<path fill="#000" style="fill: var(--color19, #000)" d="M15 10h2.5v1h-2.5z"></path>
<path fill="#000" style="fill: var(--color19, #000)" d="M18.5 10h1.5v1h-1.5z"></path>
<path fill="#000" style="fill: var(--color19, #000)" d="M7.5 14c3.314 0 6-2.686 6-6s-2.686-6-6-6c-3.314 0-6 2.686-6 6v0c0.004 3.312 2.688 5.996 6 6h0zM7.5 13c-2.584-0.003-4.709-1.964-4.973-4.478l-0.002-0.022h4.975c0 0 0 0 0.001 0 0.138 0 0.263-0.056 0.353-0.146h0l3.516-3.516c0.704 0.854 1.13 1.96 1.13 3.165 0 2.76-2.237 4.997-4.997 4.997-0.001 0-0.002 0-0.003 0h0zM8 3.025c1.022 0.105 1.935 0.505 2.671 1.112l-0.008-0.007-2.662 2.662zM7 3.025v4.475h-4.475c0.248-2.365 2.11-4.227 4.453-4.473l0.022-0.002z"></path>
</symbol>
<symbol id="icon-phone-office" viewBox="0 0 32 32">
<path fill="#ff7265" style="fill: var(--color6, #ff7265)" d="M29.236 7.852l-0.471-1.813c-0.328-1.263-0.962-2.365-1.801-3.248-1.802-1.896-4.553-2.781-7.264-2.077l-13.658 3.55c-3.974 1.032-6.358 5.091-5.325 9.065l0.471 1.813c0.176 0.679 0.87 1.086 1.549 0.91l4.734-1.23c0.679-0.177 1.086-0.87 0.91-1.549l-0.471-1.813-0.143-0.547c-0.317-1.222 0.416-2.47 1.637-2.787l9.238-2.401c1.222-0.318 2.47 0.416 2.787 1.637l0.143 0.547 0.471 1.813c0.177 0.679 0.87 1.086 1.549 0.91l4.734-1.231c0.679-0.177 1.086-0.87 0.91-1.549z"></path>
<path fill="#e53045" style="fill: var(--color7, #e53045)" d="M26.965 2.791c-1.802-1.896-4.553-2.781-7.264-2.077l-13.658 3.55c-3.974 1.032-6.358 5.091-5.325 9.065l0.396 1.522 1.86-2.108c-0.464-1.786 0.483-6.191 4.892-7.338s11.281-2.932 12.563-3.265c0.961-0.25 4.415-0.81 6.535 0.651z"></path>
<path fill="#d6d3c4" style="fill: var(--color8, #d6d3c4)" d="M8.382 13.273l-0.471-1.813-7.193 1.87 0.471 1.813c0.176 0.679 0.87 1.086 1.549 0.91l4.74-1.232c0.675-0.179 1.079-0.87 0.904-1.547z"></path>
<path fill="#fbf2dc" style="fill: var(--color9, #fbf2dc)" d="M8.382 13.273l-0.471-1.813-4.936 1.283 0.471 1.813c0.176 0.679 0.87 1.086 1.549 0.91l2.484-0.645c0.675-0.179 1.079-0.87 0.904-1.547z"></path>
<path fill="#d6d3c4" style="fill: var(--color8, #d6d3c4)" d="M29.236 7.852l-0.471-1.813-7.192 1.869 0.471 1.813c0.177 0.679 0.87 1.086 1.549 0.91l4.734-1.231c0.679-0.177 1.086-0.87 0.91-1.549z"></path>
<path fill="#fbf2dc" style="fill: var(--color9, #fbf2dc)" d="M29.236 7.853l-0.471-1.813-4.937 1.283 0.471 1.813c0.176 0.679 0.87 1.086 1.549 0.91l2.484-0.645c0.675-0.179 1.080-0.87 0.904-1.547z"></path>
<path fill="#d6d3c4" style="fill: var(--color8, #d6d3c4)" d="M28.343 29.989c0 0.422-0.171 0.803-0.447 1.080s-0.658 0.447-1.080 0.447h-21.823c-0.843 0-1.527-0.683-1.527-1.526 0-0.422 0.171-0.803 0.447-1.080s0.658-0.447 1.079-0.447h21.823c0.843 0 1.527 0.684 1.527 1.527z"></path>
<path fill="#fbf2dc" style="fill: var(--color9, #fbf2dc)" d="M28.343 29.989c0 0.422-0.171 0.803-0.447 1.080s-0.658 0.447-1.080 0.447h-16.691c-0.843 0-1.526-0.683-1.526-1.526 0-0.422 0.171-0.803 0.447-1.080s0.658-0.447 1.079-0.447h16.691c0.843 0 1.527 0.684 1.527 1.527z"></path>
<path fill="#ff7265" style="fill: var(--color6, #ff7265)" d="M18.532 11.665v0.512c0 1.451-1.176 2.627-2.627 2.627s-2.627-1.176-2.627-2.627v-0.512h-2.322c0 2.546-1.735 4.687-4.087 5.305-0.819 0.215-1.397 0.942-1.397 1.789v9.704h20.869v-9.704c0-0.846-0.579-1.574-1.397-1.789-2.352-0.618-4.087-2.759-4.087-5.305h-2.322z"></path>
<path fill="#e53045" style="fill: var(--color7, #e53045)" d="M10.955 11.665h1.649c0 2.546-0.513 4.687-2.865 5.305-0.819 0.215-1.397 0.943-1.397 1.789v9.704h-2.872v-9.704c0-0.846 0.579-1.574 1.397-1.789 2.352-0.618 4.087-2.759 4.087-5.305z"></path>
<path fill="#fbf2dc" style="fill: var(--color9, #fbf2dc)" d="M12.078 18.893h-1.283c-0.481 0-0.871-0.39-0.871-0.871s0.39-0.871 0.871-0.871h1.283c0.481 0 0.871 0.39 0.871 0.871s-0.39 0.871-0.871 0.871z"></path>
<path fill="#fbf2dc" style="fill: var(--color9, #fbf2dc)" d="M21.015 18.893h-1.283c-0.481 0-0.871-0.39-0.871-0.871s0.39-0.871 0.871-0.871h1.283c0.481 0 0.871 0.39 0.871 0.871s-0.39 0.871-0.871 0.871z"></path>
<path fill="#fbf2dc" style="fill: var(--color9, #fbf2dc)" d="M16.546 18.893h-1.283c-0.481 0-0.871-0.39-0.871-0.871s0.39-0.871 0.871-0.871h1.283c0.481 0 0.871 0.39 0.871 0.871s-0.39 0.871-0.871 0.871z"></path>
<path fill="#fbf2dc" style="fill: var(--color9, #fbf2dc)" d="M12.078 22.065h-1.283c-0.481 0-0.871-0.39-0.871-0.871s0.39-0.871 0.871-0.871h1.283c0.481 0 0.871 0.39 0.871 0.871s-0.39 0.871-0.871 0.871z"></path>
<path fill="#fbf2dc" style="fill: var(--color9, #fbf2dc)" d="M21.015 22.065h-1.283c-0.481 0-0.871-0.39-0.871-0.871s0.39-0.871 0.871-0.871h1.283c0.481 0 0.871 0.39 0.871 0.871s-0.39 0.871-0.871 0.871z"></path>
<path fill="#fbf2dc" style="fill: var(--color9, #fbf2dc)" d="M16.546 22.065h-1.283c-0.481 0-0.871-0.39-0.871-0.871s0.39-0.871 0.871-0.871h1.283c0.481 0 0.871 0.39 0.871 0.871s-0.39 0.871-0.871 0.871z"></path>
<path fill="#fbf2dc" style="fill: var(--color9, #fbf2dc)" d="M12.078 25.237h-1.283c-0.481 0-0.871-0.39-0.871-0.871s0.39-0.871 0.871-0.871h1.283c0.481 0 0.871 0.39 0.871 0.871s-0.39 0.871-0.871 0.871z"></path>
<path fill="#fbf2dc" style="fill: var(--color9, #fbf2dc)" d="M21.015 25.237h-1.283c-0.481 0-0.871-0.39-0.871-0.871s0.39-0.871 0.871-0.871h1.283c0.481 0 0.871 0.39 0.871 0.871s-0.39 0.871-0.871 0.871z"></path>
<path fill="#fbf2dc" style="fill: var(--color9, #fbf2dc)" d="M16.546 25.237h-1.283c-0.481 0-0.871-0.39-0.871-0.871s0.39-0.871 0.871-0.871h1.283c0.481 0 0.871 0.39 0.871 0.871s-0.39 0.871-0.871 0.871z"></path>
<path fill="#000" style="fill: var(--color10, #000)" d="M8.842 13.154l-0.47-1.807c-0.001-0.002-0.001-0.005-0.001-0.007s-0.143-0.547-0.143-0.547c-0.122-0.468-0.054-0.955 0.191-1.372s0.637-0.714 1.105-0.835l9.238-2.401c0.468-0.122 0.955-0.054 1.372 0.191s0.714 0.637 0.835 1.106l0.614 2.36c0.117 0.451 0.403 0.83 0.805 1.066s0.872 0.302 1.323 0.184l4.734-1.231c0.931-0.242 1.492-1.197 1.25-2.129 0 0-0.472-1.816-0.473-1.818-0.337-1.294-0.999-2.487-1.915-3.451-1.984-2.086-4.945-2.933-7.729-2.209l-13.658 3.55c-2.045 0.532-3.76 1.827-4.83 3.649s-1.366 3.949-0.836 5.992c0 0.001 0.472 1.816 0.472 1.816 0.117 0.451 0.403 0.83 0.805 1.066 0.272 0.159 0.574 0.241 0.881 0.241 0.147 0 0.296-0.019 0.442-0.057l4.734-1.23c0.932-0.242 1.493-1.197 1.251-2.128zM1.913 7.935c0.941-1.603 2.45-2.743 4.249-3.21l13.658-3.55c2.449-0.637 5.054 0.108 6.8 1.944 0.698 0.734 1.227 1.62 1.55 2.584l-0.886 0.23c-0.254 0.066-0.407 0.326-0.341 0.58 0.056 0.214 0.249 0.356 0.46 0.356 0.040 0 0.080-0.005 0.12-0.015l0.902-0.235 0.352 1.353c0.11 0.424-0.145 0.859-0.569 0.969l-4.734 1.231c-0.205 0.053-0.419 0.024-0.602-0.084s-0.313-0.28-0.366-0.485l-0.352-1.353 3.405-0.885c0.254-0.066 0.407-0.326 0.341-0.58s-0.326-0.407-0.58-0.341l-3.405 0.885-0.022-0.087c-0.186-0.714-0.638-1.313-1.274-1.686s-1.379-0.477-2.093-0.292l-9.238 2.401c-0.714 0.186-1.313 0.638-1.686 1.274s-0.477 1.379-0.292 2.094l0.022 0.086-6.256 1.626c-0.314-1.654-0.022-3.345 0.838-4.81zM2.618 15.592c-0.205 0.053-0.419 0.024-0.602-0.084s-0.313-0.28-0.367-0.485l-0.352-1.353 6.272-1.63 0.352 1.353c0.11 0.424-0.145 0.859-0.569 0.969z"></path>
<path fill="#000" style="fill: var(--color10, #000)" d="M26.816 27.987h-0.002v-9.229c0-1.053-0.72-1.978-1.752-2.249-2.198-0.577-3.733-2.57-3.733-4.845 0-0.263-0.213-0.476-0.476-0.476h-2.322c-0.263 0-0.476 0.213-0.476 0.476v0.512c0 1.186-0.965 2.151-2.151 2.151s-2.152-0.965-2.152-2.151v-0.512c0-0.263-0.213-0.476-0.475-0.476h-2.322c-0.263 0-0.476 0.213-0.476 0.476 0 2.275-1.535 4.268-3.733 4.845-1.032 0.271-1.752 1.196-1.752 2.249v9.229h-0.002c-1.104 0-2.002 0.898-2.002 2.002s0.898 2.002 2.002 2.002h1.105c0.262 0 0.475-0.213 0.475-0.475s-0.213-0.476-0.475-0.476h-1.106c-0.58 0-1.051-0.472-1.051-1.051s0.471-1.051 1.051-1.051h21.823c0.58 0 1.051 0.471 1.051 1.051s-0.471 1.051-1.051 1.051h-18.816c-0.262 0-0.475 0.213-0.475 0.476s0.213 0.475 0.475 0.475h18.816c1.104 0 2.002-0.898 2.002-2.002s-0.898-2.002-2.002-2.002zM5.946 27.987v-9.229c0-0.621 0.429-1.167 1.042-1.329 2.461-0.646 4.224-2.784 4.424-5.29h1.39v0.037c0 1.711 1.392 3.102 3.103 3.102s3.102-1.392 3.102-3.102v-0.037h1.39c0.199 2.506 1.962 4.643 4.423 5.29 0.614 0.161 1.043 0.708 1.043 1.329v9.229h-19.918z"></path>
<path fill="#000" style="fill: var(--color10, #000)" d="M12.078 16.676h-1.283c-0.742 0-1.346 0.604-1.346 1.346s0.604 1.346 1.346 1.346h1.283c0.742 0 1.346-0.604 1.346-1.346s-0.604-1.346-1.346-1.346zM12.078 18.417h-1.283c-0.218 0-0.395-0.177-0.395-0.395s0.178-0.395 0.395-0.395h1.283c0.218 0 0.395 0.177 0.395 0.395s-0.177 0.395-0.395 0.395z"></path>
<path fill="#000" style="fill: var(--color10, #000)" d="M21.015 16.676h-1.283c-0.742 0-1.346 0.604-1.346 1.346s0.604 1.346 1.346 1.346h1.283c0.742 0 1.346-0.604 1.346-1.346s-0.604-1.346-1.346-1.346zM21.015 18.417h-1.283c-0.218 0-0.395-0.177-0.395-0.395s0.177-0.395 0.395-0.395h1.283c0.218 0 0.395 0.177 0.395 0.395s-0.177 0.395-0.395 0.395z"></path>
<path fill="#000" style="fill: var(--color10, #000)" d="M16.546 16.676h-1.283c-0.742 0-1.346 0.604-1.346 1.346s0.604 1.346 1.346 1.346h1.283c0.742 0 1.346-0.604 1.346-1.346s-0.604-1.346-1.346-1.346zM16.546 18.417h-1.283c-0.218 0-0.395-0.177-0.395-0.395s0.177-0.395 0.395-0.395h1.283c0.218 0 0.395 0.177 0.395 0.395s-0.177 0.395-0.395 0.395z"></path>
<path fill="#000" style="fill: var(--color10, #000)" d="M12.078 19.848h-1.283c-0.742 0-1.346 0.604-1.346 1.346s0.604 1.346 1.346 1.346h1.283c0.742 0 1.346-0.604 1.346-1.346s-0.604-1.346-1.346-1.346zM12.078 21.589h-1.283c-0.218 0-0.395-0.177-0.395-0.395s0.178-0.395 0.395-0.395h1.283c0.218 0 0.395 0.177 0.395 0.395s-0.177 0.395-0.395 0.395z"></path>
<path fill="#000" style="fill: var(--color10, #000)" d="M21.015 19.848h-1.283c-0.742 0-1.346 0.604-1.346 1.346s0.604 1.346 1.346 1.346h1.283c0.742 0 1.346-0.604 1.346-1.346s-0.604-1.346-1.346-1.346zM21.015 21.589h-1.283c-0.218 0-0.395-0.177-0.395-0.395s0.177-0.395 0.395-0.395h1.283c0.218 0 0.395 0.177 0.395 0.395s-0.177 0.395-0.395 0.395z"></path>
<path fill="#000" style="fill: var(--color10, #000)" d="M16.546 19.848h-1.283c-0.742 0-1.346 0.604-1.346 1.346s0.604 1.346 1.346 1.346h1.283c0.742 0 1.346-0.604 1.346-1.346s-0.604-1.346-1.346-1.346zM16.546 21.589h-1.283c-0.218 0-0.395-0.177-0.395-0.395s0.177-0.395 0.395-0.395h1.283c0.218 0 0.395 0.177 0.395 0.395s-0.177 0.395-0.395 0.395z"></path>
<path fill="#000" style="fill: var(--color10, #000)" d="M12.078 23.020h-1.283c-0.742 0-1.346 0.604-1.346 1.346s0.604 1.346 1.346 1.346h1.283c0.742 0 1.346-0.604 1.346-1.346s-0.604-1.346-1.346-1.346zM12.078 24.761h-1.283c-0.218 0-0.395-0.177-0.395-0.395s0.178-0.395 0.395-0.395h1.283c0.218 0 0.395 0.177 0.395 0.395s-0.177 0.395-0.395 0.395z"></path>
<path fill="#000" style="fill: var(--color10, #000)" d="M21.015 23.020h-1.283c-0.742 0-1.346 0.604-1.346 1.346s0.604 1.346 1.346 1.346h1.283c0.742 0 1.346-0.604 1.346-1.346s-0.604-1.346-1.346-1.346zM21.015 24.761h-1.283c-0.218 0-0.395-0.177-0.395-0.395s0.177-0.395 0.395-0.395h1.283c0.218 0 0.395 0.177 0.395 0.395s-0.177 0.395-0.395 0.395z"></path>
<path fill="#000" style="fill: var(--color10, #000)" d="M16.546 23.020h-1.283c-0.742 0-1.346 0.604-1.346 1.346s0.604 1.346 1.346 1.346h1.283c0.742 0 1.346-0.604 1.346-1.346s-0.604-1.346-1.346-1.346zM16.546 24.761h-1.283c-0.218 0-0.395-0.177-0.395-0.395s0.177-0.395 0.395-0.395h1.283c0.218 0 0.395 0.177 0.395 0.395s-0.177 0.395-0.395 0.395z"></path>
<path fill="#000" style="fill: var(--color10, #000)" d="M26.802 17.044c0.093 0.093 0.215 0.139 0.336 0.139s0.243-0.046 0.336-0.139c0.635-0.635 0.985-1.48 0.985-2.378s-0.35-1.743-0.985-2.378c-0.186-0.186-0.487-0.186-0.672 0s-0.186 0.487 0 0.672c0.456 0.456 0.707 1.061 0.707 1.706s-0.251 1.25-0.707 1.706c-0.186 0.186-0.186 0.487 0 0.673z"></path>
<path fill="#000" style="fill: var(--color10, #000)" d="M28.396 18.442c0.122 0 0.243-0.046 0.336-0.139 0.971-0.971 1.506-2.263 1.506-3.636s-0.535-2.665-1.506-3.636c-0.186-0.186-0.487-0.186-0.672 0s-0.186 0.487 0 0.672c1.634 1.634 1.634 4.293 0 5.927-0.186 0.186-0.186 0.487 0 0.672 0.093 0.093 0.214 0.139 0.336 0.139z"></path>
<path fill="#000" style="fill: var(--color10, #000)" d="M29.978 9.785c-0.186-0.186-0.487-0.186-0.672 0s-0.186 0.487 0 0.672c1.124 1.124 1.743 2.619 1.743 4.209s-0.619 3.085-1.743 4.209c-0.186 0.186-0.186 0.487 0 0.673 0.093 0.093 0.214 0.139 0.336 0.139s0.243-0.046 0.336-0.139c1.304-1.304 2.022-3.038 2.022-4.882s-0.718-3.577-2.022-4.881z"></path>
</symbol>
<symbol id="icon-phone-2" viewBox="0 0 32 32">
<path d="M8.842 13.154l-0.47-1.807c-0.001-0.002-0.001-0.005-0.001-0.007s-0.143-0.547-0.143-0.547c-0.122-0.468-0.054-0.955 0.191-1.372s0.637-0.714 1.105-0.835l9.238-2.401c0.468-0.122 0.955-0.054 1.372 0.191s0.714 0.637 0.835 1.106l0.614 2.36c0.117 0.451 0.403 0.83 0.805 1.066s0.872 0.302 1.323 0.184l4.734-1.231c0.931-0.242 1.492-1.197 1.25-2.129 0 0-0.472-1.816-0.473-1.818-0.337-1.294-0.999-2.487-1.915-3.451-1.984-2.086-4.945-2.933-7.729-2.209l-13.658 3.55c-2.045 0.532-3.76 1.827-4.83 3.649s-1.366 3.949-0.836 5.992c0 0.001 0.472 1.816 0.472 1.816 0.117 0.451 0.403 0.83 0.805 1.066 0.272 0.159 0.574 0.241 0.881 0.241 0.147 0 0.296-0.019 0.442-0.057l4.734-1.23c0.932-0.242 1.493-1.197 1.251-2.128zM1.913 7.935c0.941-1.603 2.45-2.743 4.249-3.21l13.658-3.55c2.449-0.637 5.054 0.108 6.8 1.944 0.698 0.734 1.227 1.62 1.55 2.584l-0.886 0.23c-0.254 0.066-0.407 0.326-0.341 0.58 0.056 0.214 0.249 0.356 0.46 0.356 0.040 0 0.080-0.005 0.12-0.015l0.902-0.235 0.352 1.353c0.11 0.424-0.145 0.859-0.569 0.969l-4.734 1.231c-0.205 0.053-0.419 0.024-0.602-0.084s-0.313-0.28-0.366-0.485l-0.352-1.353 3.405-0.885c0.254-0.066 0.407-0.326 0.341-0.58s-0.326-0.407-0.58-0.341l-3.405 0.885-0.022-0.087c-0.186-0.714-0.638-1.313-1.274-1.686s-1.379-0.477-2.093-0.292l-9.238 2.401c-0.714 0.186-1.313 0.638-1.686 1.274s-0.477 1.379-0.292 2.094l0.022 0.086-6.256 1.626c-0.314-1.654-0.022-3.345 0.838-4.81zM2.618 15.592c-0.205 0.053-0.419 0.024-0.602-0.084s-0.313-0.28-0.367-0.485l-0.352-1.353 6.272-1.63 0.352 1.353c0.11 0.424-0.145 0.859-0.569 0.969z"></path>
<path d="M26.816 27.987h-0.002v-9.229c0-1.053-0.72-1.978-1.752-2.249-2.198-0.577-3.733-2.57-3.733-4.845 0-0.263-0.213-0.476-0.476-0.476h-2.322c-0.263 0-0.476 0.213-0.476 0.476v0.512c0 1.186-0.965 2.151-2.151 2.151s-2.152-0.965-2.152-2.151v-0.512c0-0.263-0.213-0.476-0.475-0.476h-2.322c-0.263 0-0.476 0.213-0.476 0.476 0 2.275-1.535 4.268-3.733 4.845-1.032 0.271-1.752 1.196-1.752 2.249v9.229h-0.002c-1.104 0-2.002 0.898-2.002 2.002s0.898 2.002 2.002 2.002h1.105c0.262 0 0.475-0.213 0.475-0.475s-0.213-0.476-0.475-0.476h-1.106c-0.58 0-1.051-0.472-1.051-1.051s0.471-1.051 1.051-1.051h21.823c0.58 0 1.051 0.471 1.051 1.051s-0.471 1.051-1.051 1.051h-18.816c-0.262 0-0.475 0.213-0.475 0.476s0.213 0.475 0.475 0.475h18.816c1.104 0 2.002-0.898 2.002-2.002s-0.898-2.002-2.002-2.002zM5.946 27.987v-9.229c0-0.621 0.429-1.167 1.042-1.329 2.461-0.646 4.224-2.784 4.424-5.29h1.39v0.037c0 1.711 1.392 3.102 3.103 3.102s3.102-1.392 3.102-3.102v-0.037h1.39c0.199 2.506 1.962 4.643 4.423 5.29 0.614 0.161 1.043 0.708 1.043 1.329v9.229h-19.918z"></path>
<path d="M12.078 16.676h-1.283c-0.742 0-1.346 0.604-1.346 1.346s0.604 1.346 1.346 1.346h1.283c0.742 0 1.346-0.604 1.346-1.346s-0.604-1.346-1.346-1.346zM12.078 18.417h-1.283c-0.218 0-0.395-0.177-0.395-0.395s0.178-0.395 0.395-0.395h1.283c0.218 0 0.395 0.177 0.395 0.395s-0.177 0.395-0.395 0.395z"></path>
<path d="M21.015 16.676h-1.283c-0.742 0-1.346 0.604-1.346 1.346s0.604 1.346 1.346 1.346h1.283c0.742 0 1.346-0.604 1.346-1.346s-0.604-1.346-1.346-1.346zM21.015 18.417h-1.283c-0.218 0-0.395-0.177-0.395-0.395s0.177-0.395 0.395-0.395h1.283c0.218 0 0.395 0.177 0.395 0.395s-0.177 0.395-0.395 0.395z"></path>
<path d="M16.546 16.676h-1.283c-0.742 0-1.346 0.604-1.346 1.346s0.604 1.346 1.346 1.346h1.283c0.742 0 1.346-0.604 1.346-1.346s-0.604-1.346-1.346-1.346zM16.546 18.417h-1.283c-0.218 0-0.395-0.177-0.395-0.395s0.177-0.395 0.395-0.395h1.283c0.218 0 0.395 0.177 0.395 0.395s-0.177 0.395-0.395 0.395z"></path>
<path d="M12.078 19.848h-1.283c-0.742 0-1.346 0.604-1.346 1.346s0.604 1.346 1.346 1.346h1.283c0.742 0 1.346-0.604 1.346-1.346s-0.604-1.346-1.346-1.346zM12.078 21.589h-1.283c-0.218 0-0.395-0.177-0.395-0.395s0.178-0.395 0.395-0.395h1.283c0.218 0 0.395 0.177 0.395 0.395s-0.177 0.395-0.395 0.395z"></path>
<path d="M21.015 19.848h-1.283c-0.742 0-1.346 0.604-1.346 1.346s0.604 1.346 1.346 1.346h1.283c0.742 0 1.346-0.604 1.346-1.346s-0.604-1.346-1.346-1.346zM21.015 21.589h-1.283c-0.218 0-0.395-0.177-0.395-0.395s0.177-0.395 0.395-0.395h1.283c0.218 0 0.395 0.177 0.395 0.395s-0.177 0.395-0.395 0.395z"></path>
<path d="M16.546 19.848h-1.283c-0.742 0-1.346 0.604-1.346 1.346s0.604 1.346 1.346 1.346h1.283c0.742 0 1.346-0.604 1.346-1.346s-0.604-1.346-1.346-1.346zM16.546 21.589h-1.283c-0.218 0-0.395-0.177-0.395-0.395s0.177-0.395 0.395-0.395h1.283c0.218 0 0.395 0.177 0.395 0.395s-0.177 0.395-0.395 0.395z"></path>
<path d="M12.078 23.020h-1.283c-0.742 0-1.346 0.604-1.346 1.346s0.604 1.346 1.346 1.346h1.283c0.742 0 1.346-0.604 1.346-1.346s-0.604-1.346-1.346-1.346zM12.078 24.761h-1.283c-0.218 0-0.395-0.177-0.395-0.395s0.178-0.395 0.395-0.395h1.283c0.218 0 0.395 0.177 0.395 0.395s-0.177 0.395-0.395 0.395z"></path>
<path d="M21.015 23.020h-1.283c-0.742 0-1.346 0.604-1.346 1.346s0.604 1.346 1.346 1.346h1.283c0.742 0 1.346-0.604 1.346-1.346s-0.604-1.346-1.346-1.346zM21.015 24.761h-1.283c-0.218 0-0.395-0.177-0.395-0.395s0.177-0.395 0.395-0.395h1.283c0.218 0 0.395 0.177 0.395 0.395s-0.177 0.395-0.395 0.395z"></path>
<path d="M16.546 23.020h-1.283c-0.742 0-1.346 0.604-1.346 1.346s0.604 1.346 1.346 1.346h1.283c0.742 0 1.346-0.604 1.346-1.346s-0.604-1.346-1.346-1.346zM16.546 24.761h-1.283c-0.218 0-0.395-0.177-0.395-0.395s0.177-0.395 0.395-0.395h1.283c0.218 0 0.395 0.177 0.395 0.395s-0.177 0.395-0.395 0.395z"></path>
<path d="M26.802 17.044c0.093 0.093 0.215 0.139 0.336 0.139s0.243-0.046 0.336-0.139c0.635-0.635 0.985-1.48 0.985-2.378s-0.35-1.743-0.985-2.378c-0.186-0.186-0.487-0.186-0.672 0s-0.186 0.487 0 0.672c0.456 0.456 0.707 1.061 0.707 1.706s-0.251 1.25-0.707 1.706c-0.186 0.186-0.186 0.487 0 0.673z"></path>
<path d="M28.396 18.442c0.122 0 0.243-0.046 0.336-0.139 0.971-0.971 1.506-2.263 1.506-3.636s-0.535-2.665-1.506-3.636c-0.186-0.186-0.487-0.186-0.672 0s-0.186 0.487 0 0.672c1.634 1.634 1.634 4.293 0 5.927-0.186 0.186-0.186 0.487 0 0.672 0.093 0.093 0.214 0.139 0.336 0.139z"></path>
<path d="M29.978 9.785c-0.186-0.186-0.487-0.186-0.672 0s-0.186 0.487 0 0.672c1.124 1.124 1.743 2.619 1.743 4.209s-0.619 3.085-1.743 4.209c-0.186 0.186-0.186 0.487 0 0.673 0.093 0.093 0.214 0.139 0.336 0.139s0.243-0.046 0.336-0.139c1.304-1.304 2.022-3.038 2.022-4.882s-0.718-3.577-2.022-4.881z"></path>
</symbol>
<symbol id="icon-beftn" viewBox="0 0 32 32">
<path fill="#e6e7e8" style="fill: var(--color1, #e6e7e8)" d="M21.867 21.867v-4.267c0-1.767 1.433-3.2 3.2-3.2h1.6c-1.473 0-2.667-1.194-2.667-2.667s1.194-2.667 2.667-2.667v-5.333h-21.333v5.333c1.473 0 2.667 1.194 2.667 2.667s-1.194 2.667-2.667 2.667h1.6c1.767 0 3.2 1.433 3.2 3.2v4.267c0 0.589-0.477 1.067-1.067 1.067h-3.733v5.333h21.333v-5.333h-3.733c-0.589 0-1.067-0.478-1.067-1.067zM20.267 21.333h-5.333v2.133l-3.2-3.2 3.2-3.2v2.133h5.333zM17.067 14.933v-2.133h-5.333v-2.133h5.333v-2.133l3.2 3.2z"></path>
<path fill="#414042" style="fill: var(--color2, #414042)" d="M5.333 29.333c0 1.178 0.955 2.133 2.133 2.133h17.067c1.178 0 2.133-0.955 2.133-2.133v-1.067h-21.333z"></path>
<path fill="#414042" style="fill: var(--color2, #414042)" d="M26.667 2.667c0-1.178-0.955-2.133-2.133-2.133h-17.067c-1.178 0-2.133 0.955-2.133 2.133v1.067h21.333z"></path>
<path fill="#ffeb99" style="fill: var(--color3, #ffeb99)" d="M8 11.733c0 1.473-1.194 2.667-2.667 2.667s-2.667-1.194-2.667-2.667 1.194-2.667 2.667-2.667 2.667 1.194 2.667 2.667z"></path>
<path fill="#33dfe5" style="fill: var(--color4, #33dfe5)" d="M10.133 21.867v-4.267c0-1.767-1.433-3.2-3.2-3.2h-3.2c-1.767 0-3.2 1.433-3.2 3.2v4.267c0 0.589 0.478 1.067 1.067 1.067h7.467c0.589 0 1.067-0.478 1.067-1.067z"></path>
<path fill="#ffeb99" style="fill: var(--color3, #ffeb99)" d="M29.333 11.733c0 1.473-1.194 2.667-2.667 2.667s-2.667-1.194-2.667-2.667 1.194-2.667 2.667-2.667 2.667 1.194 2.667 2.667z"></path>
<path fill="#33dfe5" style="fill: var(--color4, #33dfe5)" d="M28.267 14.4h-3.2c-1.767 0-3.2 1.433-3.2 3.2v4.267c0 0.589 0.477 1.067 1.067 1.067h7.467c0.589 0 1.067-0.478 1.067-1.067v-4.267c0-1.767-1.433-3.2-3.2-3.2z"></path>
<path fill="#ffad41" style="fill: var(--color5, #ffad41)" d="M17.067 10.667h-5.333v2.133h5.333v2.133l3.2-3.2-3.2-3.2z"></path>
<path fill="#ffad41" style="fill: var(--color5, #ffad41)" d="M14.933 17.067l-3.2 3.2 3.2 3.2v-2.133h5.333v-2.133h-5.333z"></path>
<path fill="#000" style="fill: var(--color6, #000)" d="M24 5.333h1.067v1.067h-1.067z"></path>
<path fill="#000" style="fill: var(--color6, #000)" d="M21.867 5.333h1.067v1.067h-1.067z"></path>
<path fill="#000" style="fill: var(--color6, #000)" d="M19.733 5.333h1.067v1.067h-1.067z"></path>
<path fill="#000" style="fill: var(--color6, #000)" d="M6.933 5.333h1.067v1.067h-1.067z"></path>
<path fill="#000" style="fill: var(--color6, #000)" d="M17.067 29.333h-2.133c-0.294 0-0.533 0.239-0.533 0.533s0.239 0.533 0.533 0.533h2.133c0.295 0 0.533-0.239 0.533-0.533s-0.239-0.533-0.533-0.533z"></path>
<path fill="#000" style="fill: var(--color6, #000)" d="M28.981 13.937c1.219-1.274 1.174-3.295-0.1-4.514-0.463-0.443-1.049-0.736-1.681-0.842v-5.915c-0.002-1.472-1.195-2.665-2.667-2.667h-17.067c-1.472 0.002-2.665 1.195-2.667 2.667v5.915c-1.739 0.29-2.914 1.936-2.623 3.675 0.105 0.632 0.399 1.218 0.842 1.681-1.752 0.344-3.016 1.878-3.019 3.663v4.267c0 0.884 0.716 1.6 1.6 1.6h3.2v5.867c0.002 1.472 1.195 2.665 2.667 2.667h17.067c1.472-0.002 2.665-1.195 2.667-2.667v-5.867h3.2c0.884 0 1.6-0.716 1.6-1.6v-4.267c-0.003-1.785-1.267-3.319-3.019-3.663zM28.8 11.733c0 1.178-0.955 2.133-2.133 2.133s-2.133-0.955-2.133-2.133c0-1.178 0.955-2.133 2.133-2.133s2.133 0.955 2.133 2.133zM7.467 1.067h17.067c0.884 0 1.6 0.716 1.6 1.6v0.533h-20.267v-0.533c0-0.884 0.716-1.6 1.6-1.6zM5.333 9.6c1.178 0 2.133 0.955 2.133 2.133s-0.955 2.133-2.133 2.133c-1.178 0-2.133-0.955-2.133-2.133s0.955-2.133 2.133-2.133zM1.067 21.867v-4.267c0.002-1.472 1.195-2.665 2.667-2.667h3.2c1.472 0.002 2.665 1.195 2.667 2.667v4.267c0 0.294-0.239 0.533-0.533 0.533h-7.467c-0.294 0-0.533-0.239-0.533-0.533zM24.533 30.933h-17.067c-0.884 0-1.6-0.716-1.6-1.6v-0.533h20.267v0.533c-0 0.884-0.716 1.6-1.6 1.6zM26.133 27.733h-20.267v-4.267h3.2c0.884 0 1.6-0.716 1.6-1.6v-4.267c-0.003-1.785-1.267-3.319-3.019-3.663 1.219-1.274 1.174-3.295-0.1-4.514-0.463-0.443-1.049-0.736-1.681-0.842v-4.315h20.267v4.315c-1.739 0.29-2.914 1.936-2.623 3.675 0.106 0.632 0.399 1.218 0.842 1.681-1.752 0.344-3.016 1.878-3.019 3.663v4.267c0 0.884 0.716 1.6 1.6 1.6h3.2zM30.933 21.867c0 0.294-0.239 0.533-0.533 0.533h-7.467c-0.295 0-0.533-0.239-0.533-0.533v-4.267c0.002-1.472 1.195-2.665 2.667-2.667h3.2c1.472 0.002 2.665 1.195 2.667 2.667z"></path>
<path fill="#000" style="fill: var(--color6, #000)" d="M17.444 8.156c-0.208-0.208-0.546-0.208-0.754 0-0.1 0.1-0.156 0.236-0.156 0.377v1.6h-4.8c-0.294 0-0.533 0.239-0.533 0.533v2.133c0 0.294 0.239 0.533 0.533 0.533h4.8v1.6c0 0.294 0.239 0.533 0.533 0.533 0.141 0 0.277-0.056 0.377-0.156l3.2-3.2c0.208-0.208 0.208-0.546 0-0.754zM17.6 13.646v-0.846c0-0.294-0.239-0.533-0.533-0.533h-4.8v-1.067h4.8c0.295 0 0.533-0.239 0.533-0.533v-0.846l1.913 1.913z"></path>
<path fill="#000" style="fill: var(--color6, #000)" d="M20.267 18.667h-4.8v-1.6c-0-0.294-0.239-0.533-0.533-0.533-0.141 0-0.277 0.056-0.377 0.156l-3.2 3.2c-0.208 0.208-0.208 0.546 0 0.754l3.2 3.2c0.208 0.208 0.546 0.208 0.754-0 0.1-0.1 0.156-0.236 0.156-0.377v-1.6h4.8c0.294 0 0.533-0.239 0.533-0.533v-2.133c0-0.294-0.239-0.533-0.533-0.533zM19.733 20.8h-4.8c-0.295 0-0.533 0.239-0.533 0.533v0.846l-1.913-1.913 1.913-1.913v0.846c0 0.294 0.239 0.533 0.533 0.533h4.8z"></path>
</symbol>
<symbol id="icon-phone-3" viewBox="0 0 32 32">
<path fill="#5b362a" style="fill: var(--color6, #5b362a)" d="M9.16 13.57l-1.331 1.331-2.974-1.103-1.605-1.616-1.662-3.541c0.262-0.469 0.543-0.918 0.862-1.368 0.637-0.881 2.062-0.993 2.849-0.206l3.861 3.861c0.735 0.735 0.716 1.926 0 2.642z"></path>
<path fill="#38211a" style="fill: var(--color7, #38211a)" d="M25.484 28.207c-0.038 0.544-0.319 1.031-0.75 1.349-0.45 0.319-0.9 0.6-1.387 0.843l-3.227-1.353-1.376-1.376-1.619-3.493 1.312-1.331c0.712-0.712 1.949-0.712 2.642 0l3.861 3.861c0.394 0.394 0.6 0.937 0.544 1.499z"></path>
<path fill="#8cd96b" style="fill: var(--color8, #8cd96b)" d="M18.881 11.252c-0.518 0-0.937 0.42-0.937 0.938 0 0.517 0.419 0.937 0.936 0.937 0 0 0.001 0 0.001 0 0.056 0.477 0.464 0.882 0.94 0.882 0.016 0 0.032 0 0.048-0.001 0.496-0.028 0.887-0.385 0.887-0.882 0-0.517-0.21-0.985-0.55-1.325s-0.808-0.55-1.325-0.55z"></path>
<path fill="#8cd96b" style="fill: var(--color8, #8cd96b)" d="M18.881 7.504c-0.518 0-0.937 0.419-0.937 0.937s0.419 0.937 0.937 0.937c1.034 0 1.971 0.42 2.649 1.099s1.099 1.616 1.099 2.649c0 0.518 0.419 0.937 0.937 0.937s0.937-0.419 0.937-0.937c0-1.55-0.631-2.956-1.649-3.974s-2.424-1.649-3.974-1.649z"></path>
<path fill="#8cd96b" style="fill: var(--color8, #8cd96b)" d="M18.881 3.756c-0.518 0-0.937 0.419-0.937 0.937s0.419 0.937 0.937 0.937c2.067 0 3.941 0.841 5.298 2.198s2.198 3.232 2.198 5.298c0 0.518 0.419 0.937 0.937 0.937s0.937-0.419 0.937-0.937c0-2.583-1.051-4.926-2.748-6.623s-4.040-2.748-6.623-2.748z"></path>
<path fill="#8cd96b" style="fill: var(--color8, #8cd96b)" d="M28.153 3.854c-2.375-2.376-5.655-3.847-9.272-3.847-0.518 0-0.937 0.419-0.937 0.937s0.419 0.937 0.937 0.937c3.1 0 5.912 1.261 7.948 3.297s3.297 4.847 3.297 7.948c0 0.518 0.419 0.937 0.937 0.937s0.937-0.419 0.937-0.937c0-3.617-1.471-6.897-3.847-9.272z"></path>
<path fill="#5ab267" style="fill: var(--color9, #5ab267)" d="M31.063 14.063c0.518 0 0.937-0.419 0.937-0.937 0-3.617-1.471-6.897-3.847-9.272l-1.325 1.325c2.036 2.036 3.297 4.847 3.297 7.948 0 0.518 0.419 0.937 0.937 0.937z"></path>
<path fill="#5ab267" style="fill: var(--color9, #5ab267)" d="M19.821 14.009c0.016 0 0.032 0 0.048-0.001 0.496-0.028 0.887-0.385 0.887-0.882 0-0.517-0.21-0.985-0.55-1.325l-1.325 1.325c0 0 0.001 0 0.001 0 0.056 0.477 0.464 0.882 0.94 0.882z"></path>
<path fill="#5ab267" style="fill: var(--color9, #5ab267)" d="M23.566 14.063c0.518 0 0.937-0.419 0.937-0.937 0-1.55-0.631-2.956-1.649-3.974l-1.325 1.325c0.679 0.679 1.099 1.616 1.099 2.649 0 0.518 0.419 0.937 0.937 0.937z"></path>
<path fill="#5ab267" style="fill: var(--color9, #5ab267)" d="M27.315 14.063c0.518 0 0.937-0.419 0.937-0.937 0-2.583-1.051-4.926-2.748-6.623l-1.325 1.325c1.357 1.357 2.198 3.232 2.198 5.298 0 0.518 0.419 0.937 0.937 0.937z"></path>
<path fill="#ff641a" style="fill: var(--color10, #ff641a)" d="M17.126 24.178s-1.106 0.787-1.743 0.918c-1.256 0.319-2.643 0-3.58-0.918l-3.973-3.973c-0.974-0.975-1.293-2.361-0.956-3.617 0.15-0.619 0.469-1.199 0.956-1.687l-6.241-6.26c-0.319 0.6-0.6 1.218-0.806 1.856-1.705 4.667-0.6 10.008 3.074 13.681l3.973 3.973c2.474 2.474 5.772 3.842 9.277 3.842 1.518 0 2.999-0.262 4.404-0.768 0.637-0.206 1.256-0.487 1.837-0.825z"></path>
<path fill="#f03800" style="fill: var(--color11, #f03800)" d="M17.107 31.993c1.518 0 2.999-0.262 4.404-0.768 0.637-0.206 1.256-0.487 1.837-0.825l-6.222-6.222s-1.106 0.787-1.743 0.918c-1.256 0.319-2.643 0-3.58-0.918l-1.987-1.987-3.973 3.973 1.987 1.987c2.474 2.474 5.772 3.842 9.277 3.842z"></path>
</symbol>
<symbol id="icon-menu" viewBox="0 0 32 32">
<path fill="#ff485a" style="fill: var(--color6, #ff485a)" d="M29.949 5.744h-27.897c-1.133 0-2.051-0.918-2.051-2.051s0.918-2.051 2.051-2.051h27.897c1.133 0 2.051 0.918 2.051 2.051s-0.918 2.051-2.051 2.051z"></path>
<path fill="#ff485a" style="fill: var(--color6, #ff485a)" d="M18.462 18.051h-16.41c-1.133 0-2.051-0.918-2.051-2.051s0.918-2.051 2.051-2.051h16.41c1.133 0 2.051 0.918 2.051 2.051s-0.918 2.051-2.051 2.051z"></path>
<path fill="#ffbbc0" style="fill: var(--color7, #ffbbc0)" d="M29.949 18.051h-3.282c-1.133 0-2.051-0.918-2.051-2.051s0.918-2.051 2.051-2.051h3.282c1.133 0 2.051 0.918 2.051 2.051s-0.918 2.051-2.051 2.051z"></path>
<path fill="#ff485a" style="fill: var(--color6, #ff485a)" d="M29.949 30.359h-27.897c-1.133 0-2.051-0.918-2.051-2.051s0.918-2.051 2.051-2.051h27.897c1.133 0 2.051 0.918 2.051 2.051s-0.918 2.051-2.051 2.051z"></path>
</symbol>

<symbol id="icon-mail-final" viewBox="0 0 32 32">
<path fill="#ffd54f" style="fill: var(--color6, #ffd54f)" d="M31.332 2.129l-13.621 9.85c-1.017 0.751-2.405 0.751-3.423 0l-1.92-1.391-11.715-8.445c0.652-0.911 1.704-1.45 2.824-1.447h25.043c1.112 0.001 2.157 0.534 2.81 1.433z"></path>
<path fill="#ffc107" style="fill: var(--color7, #ffc107)" d="M0.654 2.143l11.715 8.445-11.353 11.353c-0.652-0.654-1.017-1.539-1.016-2.463v-15.304c-0.003-0.729 0.226-1.441 0.654-2.031z"></path>
<path fill="#ffc107" style="fill: var(--color7, #ffc107)" d="M32 4.174v15.304c0.002 0.923-0.364 1.809-1.016 2.463l-11.353-11.353 11.701-8.459c0.434 0.593 0.668 1.31 0.668 2.045z"></path>
<path fill="#455a64" style="fill: var(--color8, #455a64)" d="M20.87 25.739c-0.924 0-1.391-0.696-1.391-2.087 0.023-1.944-1.535-3.538-3.479-3.561s-3.538 1.535-3.561 3.479c-0.023 1.944 1.535 3.538 3.479 3.561 1.042 0.012 2.036-0.438 2.714-1.229 0.462 0.792 1.323 1.264 2.239 1.229 2.783 0 2.783-2.618 2.783-3.478 0-4.226-3.426-7.652-7.652-7.652s-7.652 3.426-7.652 7.652c-0 4.226 3.426 7.652 7.652 7.652 1.986 0 3.893-0.772 5.32-2.152 0.276-0.269 0.282-0.711 0.013-0.987s-0.711-0.282-0.987-0.013v0c-2.489 2.4-6.452 2.329-8.853-0.16s-2.329-6.452 0.16-8.853c2.489-2.4 6.452-2.329 8.853 0.16 1.127 1.169 1.756 2.73 1.755 4.353 0 1.56-0.351 2.087-1.391 2.087zM16 25.739c-1.153 0-2.087-0.934-2.087-2.087s0.934-2.087 2.087-2.087 2.087 0.934 2.087 2.087-0.934 2.087-2.087 2.087z"></path>
<path fill="#ffa000" style="fill: var(--color9, #ffa000)" d="M19.631 10.588l-1.92 1.391c-1.017 0.751-2.405 0.751-3.423 0l-1.92-1.391-11.353 11.353c0.654 0.652 1.539 1.017 2.463 1.016h3.513c0.376-4.975 4.714-8.703 9.689-8.327 4.452 0.337 7.99 3.875 8.327 8.327h3.514c0.923 0.002 1.809-0.364 2.463-1.016l-11.353-11.353z"></path>
</symbol>
</defs>
</svg>